<svg width="1037" height="179" viewBox="0 0 1037 179" fill="none" xmlns="http://www.w3.org/2000/svg">
<path d="M518.47 0C468.86 0 428.65 40.21 428.65 89.82C432.76 208.72 604.2 208.69 608.29 89.82C608.29 40.21 568.08 0 518.47 0Z" fill="black"/>
<path d="M316.99 12.02C313.25 12.06 309.51 12.37 305.81 12.95C303.76 13.29 302.38 15.23 302.72 17.27C302.92 18.47 303.69 19.5 304.79 20.03C361.16 47.19 344.89 132.69 281.4 136.47C275.13 136.79 268.84 136.15 262.76 134.56C260.75 134.04 258.7 135.24 258.18 137.25C257.87 138.43 258.16 139.69 258.95 140.63C305.5 195.04 396.77 161.33 395.65 88.62C395.03 46.03 359.59 11.54 316.99 12.02Z" fill="black"/>
<path d="M275.79 96.23C287.87 96.23 297.66 86.44 297.66 74.36C296.66 45.41 254.92 45.42 253.93 74.36C253.93 86.43 263.72 96.23 275.79 96.23Z" fill="black"/>
<path d="M34.16 55.66C15.29 55.66 0 70.95 0 89.82C1.56 135.04 66.76 135.03 68.32 89.82C68.32 70.95 53.02 55.66 34.16 55.66Z" fill="black"/>
<path d="M200.52 53.08C198.59 54.62 198.27 57.42 199.81 59.35C225.37 90.55 201.82 139.34 161.46 138.8C134.41 138.8 112.48 116.87 112.48 89.82C112.48 62.77 134.41 40.84 161.46 40.84C163.93 40.8 165.9 38.77 165.86 36.31C165.82 33.9 163.88 31.95 161.46 31.91C129.48 31.91 103.55 57.84 103.55 89.82C103.55 121.8 129.48 147.73 161.46 147.73C209.19 148.36 237.03 90.68 206.8 53.79C205.25 51.86 202.45 51.54 200.52 53.08Z" fill="black"/>
<path d="M185.72 47.27C190.96 46.19 189.49 38.37 184.21 39.27C178.97 40.35 180.44 48.17 185.72 47.27Z" fill="black"/>
<path d="M774.17 134.57C701.77 151.48 666.62 53.12 732.14 20.03C734.01 19.13 734.79 16.88 733.89 15.02C733.36 13.92 732.33 13.15 731.13 12.95C727.43 12.37 723.69 12.06 719.95 12.02C677.35 11.54 641.92 46.03 641.28 88.63C640.17 161.35 731.44 195.05 777.98 140.64C779.32 139.06 779.13 136.69 777.55 135.35C776.61 134.56 775.35 134.27 774.17 134.57Z" fill="black"/>
<path d="M761.15 52.49C749.07 52.49 739.28 62.28 739.28 74.36C740.28 103.31 782.02 103.3 783.01 74.36C783.01 62.28 773.22 52.49 761.15 52.49Z" fill="black"/>
<path d="M1002.78 55.66C983.92 55.66 968.62 70.95 968.62 89.82C970.18 135.04 1035.38 135.03 1036.94 89.82C1036.94 70.95 1021.65 55.66 1002.78 55.66Z" fill="black"/>
<path d="M875.49 31.91C827.76 31.28 799.91 88.96 830.15 125.85C831.68 127.79 834.48 128.12 836.42 126.59C838.36 125.06 838.69 122.26 837.16 120.32C837.15 120.31 837.14 120.3 837.13 120.29C811.57 89.09 835.12 40.3 875.49 40.84C940.31 43.14 940.3 136.51 875.49 138.8C873.02 138.76 870.99 140.73 870.96 143.2C870.92 145.67 872.89 147.7 875.36 147.73C875.4 147.73 875.45 147.73 875.49 147.73C952.13 145.02 952.13 34.62 875.49 31.91Z" fill="black"/>
<path d="M851.22 132.36C845.98 133.44 847.45 141.26 852.73 140.36C857.97 139.29 856.5 131.46 851.22 132.36Z" fill="black"/>
</svg>
