<svg width="489" height="400" viewBox="0 0 489 400" fill="none" xmlns="http://www.w3.org/2000/svg">
<path d="M24.0567 175.517C35.7867 201.927 48.4567 227.907 61.8067 253.537C63.9067 257.557 65.9467 261.857 69.4567 264.867C72.7467 267.687 76.8067 268.587 80.9767 269.227C149.007 279.147 221.427 283.757 280.727 322.077C299.557 334.147 316.667 348.637 333.207 363.637C350.807 380.157 366.387 397.447 392.237 398.737C421.497 402.017 449.677 390.187 473.787 374.687C490.637 366.547 483.367 299.387 479.487 282.887C476.597 267.757 462.027 280.247 454.687 284.527C449.317 287.827 399.347 320.187 406.277 324.797C406.447 326.507 407.967 327.757 409.687 327.587C410.177 327.537 410.647 327.377 411.057 327.107C418.057 323.127 424.997 319.077 432.347 315.767C438.687 312.937 449.147 306.427 450.317 317.937C451.457 325.237 449.837 333.487 447.767 340.477C446.337 345.307 444.687 347.887 439.377 348.437C426.667 349.577 413.887 349.807 401.147 349.137C392.847 348.717 385.057 348.387 378.797 342.037C354.847 317.777 331.597 279.167 327.737 260.227C325.487 249.147 324.957 237.787 326.177 226.547C329.037 209.087 333.837 194.247 338.977 177.287C349.677 147.937 361.857 96.9169 400.387 82.6869C403.217 81.3369 405.587 85.2469 402.867 86.9269C393.547 92.6769 387.007 100.877 379.847 108.467C377.197 111.277 376.127 115.227 376.987 118.987C381.677 139.597 387.347 165.437 393.987 178.067C394.857 179.517 396.587 180.217 398.227 179.797C419.767 174.557 441.557 169.917 462.927 164.007C477.967 160.697 490.877 147.037 488.487 130.977C488.777 126.337 488.527 121.687 487.757 117.097C487.147 113.247 481.427 113.767 480.477 117.097C479.227 121.497 477.947 126.077 473.297 127.857C468.377 129.727 441.637 131.267 433.527 130.427C433.527 130.427 431.087 94.8469 448.537 49.6369C451.117 42.9669 456.327 33.6269 451.607 26.8169C447.527 20.9269 438.377 20.3269 432.047 19.0169C422.467 17.0369 364.587 6.96688 345.157 4.44688C327.747 3.00688 295.237 -4.52312 280.387 3.99688C240.217 38.6869 183.927 117.177 168.517 139.757C166.207 143.147 166.047 147.567 168.117 151.107C185.217 182.807 211.487 208.937 243.277 224.767C244.817 225.497 245.467 227.327 244.747 228.867C244.027 230.397 242.207 231.057 240.667 230.347C231.117 225.817 218.587 220.757 210.057 214.197C188.387 197.517 173.187 178.377 157.557 154.467C156.627 153.177 155.027 152.537 153.457 152.837C152.687 152.957 136.117 151.697 128.807 150.937C95.0067 148.157 71.7467 148.317 53.6467 115.217C38.9267 93.1469 27.7567 55.7169 56.9967 40.3169C61.2967 38.3069 65.5767 37.4269 68.5167 41.8069C75.2467 52.8369 79.1967 65.4669 81.0967 78.2069C81.7267 82.5369 88.3967 81.2969 88.4967 77.2069C89.0967 52.1869 85.6467 27.2269 78.2767 3.30688C77.6767 1.20688 75.5067 -0.0231215 73.3967 0.536878C49.4167 8.90688 27.1167 22.5869 9.90674 41.3469C8.72674 41.6269 7.81674 42.5969 7.61674 43.7969C2.48674 66.2569 -2.10326 88.8569 1.01674 111.947C4.00674 134.167 15.0567 155.227 24.0567 175.517ZM281.917 206.077C292.477 202.037 304.367 203.597 313.517 210.237C314.437 210.917 314.627 212.217 313.947 213.137C313.507 213.727 312.777 214.047 312.047 213.957C294.527 211.227 278.727 228.777 283.457 246.027C286.077 256.577 294.987 264.377 305.787 265.587C306.927 265.707 307.767 266.727 307.647 267.867C307.577 268.547 307.187 269.147 306.587 269.477C288.807 279.427 268.557 264.997 262.577 249.337C255.967 232.057 264.627 212.687 281.917 206.077Z" fill="black"/>
</svg>
