<svg xmlns="http://www.w3.org/2000/svg" viewBox="0 0 500 625" x="0px" y="0px"><path d="M187.831,378.463c-7.1,5.4-8.332,17.178-2.747,24.127A18.706,18.706,0,0,0,173.627,415.6a20.967,20.967,0,0,1-4,7.517c-6.774,7.984-1.594,21.433,8.868,22.591a514.461,514.461,0,0,0,73.43,5.32,485.878,485.878,0,0,0,71.253-5.2c10.409-1.193,15.6-14.655,8.78-22.593a21.082,21.082,0,0,1-4.09-7.63,18.7,18.7,0,0,0-11.457-13.007c5.791-7.209,4.228-19.432-3.421-24.661C404.323,317.377,361.173,171.114,250,171.277a112.913,112.913,0,0,0-62.173,207.186Zm94.157,60.99c-1.3,1.758-3.1,2.355-4.954,2.919a501.086,501.086,0,0,1-97.4-4.583,5.765,5.765,0,0,1-4.642-3.649,6.058,6.058,0,0,1,.906-6.059,28.86,28.86,0,0,0,5.461-10.437c2.232-8.447,10-9.98,14.636-8.163,12.141,6.132,50.114,12.053,74.873,8.142,6.824,1.195,12.845,3.338,13.6,11.445C284.787,432.448,284.051,436.655,281.988,439.453Zm-92.447-47.488a9.193,9.193,0,0,1,5.987-8.835,113.14,113.14,0,0,0,69.337,13.058c3.218-.094,3.869,2.566,4.03,4.889-4.71,21.2-69.271,2.348-72.71.026A9.763,9.763,0,0,1,189.541,391.965Zm89.689-205.85c109.606,32.81,64.811,192.79-41.221,188.183C82.442,356.468,143.259,148.563,279.23,186.115Z"/><path d="M254.006,127.105V50.542a4,4,0,0,0-8,0v76.563C246.131,132.357,253.869,132.4,254.006,127.105Z"/><path d="M407.122,280.222c-5.257.127-5.29,7.863,0,8h76.565c5.233-.083,5.277-7.909,0-8Z"/><path d="M16.327,288.222H92.891a4,4,0,1,0,0-8H16.327C11.075,280.347,11.032,288.084,16.327,288.222Z"/><path d="M81.942,452.286a4,4,0,0,0,5.657,0l54.138-54.139c3.667-3.691-1.926-9.354-5.657-5.656L81.942,446.63A4,4,0,0,0,81.942,452.286Z"/><path d="M358.276,398.148l54.139,54.138a4,4,0,1,0,5.657-5.656l-54.139-54.139C360.242,388.826,354.577,394.416,358.276,398.148Z"/><path d="M141.737,170.3,87.6,116.157a4,4,0,0,0-5.657,5.656l54.138,54.139C139.778,179.623,145.431,174.022,141.737,170.3Z"/><path d="M182.444,114.788c3.1-4.814-3.982-9.544-7.242-4.838C172.1,114.763,179.184,119.493,182.444,114.788Z"/><path d="M192.922,140.083c3.1-4.813-3.982-9.543-7.242-4.838C182.581,140.059,189.661,144.788,192.922,140.083Z"/><path d="M419.44,216.659c4.814,3.1,9.544-3.982,4.839-7.242C419.465,206.318,414.735,213.4,419.44,216.659Z"/><path d="M398.983,219.9c-4.813-3.1-9.543,3.981-4.838,7.241C398.959,230.235,403.688,223.155,398.983,219.9Z"/><path d="M322.04,116.64c5.595-1.213,3.933-9.564-1.7-8.542C314.746,109.31,316.408,117.661,322.04,116.64Z"/><path d="M311.562,141.935c5.595-1.212,3.934-9.563-1.7-8.542C304.268,134.606,305.93,142.957,311.562,141.935Z"/><path d="M426.131,354.556c-1.213-5.595-9.564-3.933-8.542,1.7C418.8,361.85,427.152,360.188,426.131,354.556Z"/><path d="M400.835,344.078c-1.212-5.595-9.564-3.933-8.542,1.7C393.506,351.372,401.857,349.71,400.835,344.078Z"/><path d="M73.883,213.887c1.212,5.595,9.563,3.934,8.542-1.7C81.212,206.593,72.861,208.255,73.883,213.887Z"/><path d="M99.178,224.365c1.213,5.595,9.564,3.933,8.542-1.7C106.508,217.071,98.157,218.733,99.178,224.365Z"/><path d="M24.415,364.363l20.945,3.6A18.5,18.5,0,0,1,60.431,383.02l5.722,33.18c.722,4.447,7.409,4.316,7.913-.2l3.8-31.344a18.548,18.548,0,0,1,13.989-15.726l21.953-5.312c4.2-.956,3.928-7.31-.388-7.85l-20.845-2.905A18.474,18.474,0,0,1,77,338.148l-4.93-25c-.758-4.159-6.964-4.271-7.831-.087l-5.4,24.5a18.566,18.566,0,0,1-13.756,13.989L24.164,356.53C20.016,357.457,20.179,363.7,24.415,364.363Zm43.517-30.871c1.688,14.047,8.84,24.963,23.549,27.3-13.365,2.572-21.632,13.882-22.078,27.179-1.509-14.982-8.75-25.839-24.373-28.183C58.766,357.205,66.124,346.769,67.932,333.492Z"/><path d="M430.638,146.556l-20.029-6.464a18.478,18.478,0,0,1-12.791-17.185l-.535-25.476c-.028-4.229-6.121-5.41-7.7-1.439l-9.552,23.2a18.567,18.567,0,0,1-15.966,11.4L342.6,131.881c-4.247.2-5.165,6.374-1.107,7.759L361.5,146.8a18.5,18.5,0,0,1,12.242,17.439l-.1,33.67c-.057,4.5,6.551,5.531,7.828,1.171l9.156-30.216a18.549,18.549,0,0,1,16.5-13.073l22.541-1.438C433.97,154.139,434.8,147.833,430.638,146.556Zm-48.915,24.108c1.1-15.017-4.154-26.962-19.137-31.97,13.976-.169,23.027-9.175,27.1-21.94-.765,14.127,4.393,26.114,18.477,30.955C394.557,147.933,384.46,157.645,381.723,170.664Z"/><path d="M186.68,298.77c.288.228,6.332,5.426,8.99,7.89a18.747,18.747,0,0,0-12.227,6.955c-1.6,1.993.371,5.07,2.85,3.694,5.113-3.454,10.244-6.752,16.569-4.178a142.521,142.521,0,0,0,12.392,8.612,16.719,16.719,0,0,0-7.737,8.768c-.632,1.737,1.725,3.656,3.265,2.51,3.6-2.731,6.24-7,10.856-8.225a61.264,61.264,0,0,0,23.226,4.706,79.528,79.528,0,0,0,.983,12.667,2.049,2.049,0,0,0,4.037,0,79.922,79.922,0,0,0,.981-12.948,70.839,70.839,0,0,0,19.344-4.761c5.209.893,8.2,5.521,12.065,8.563,1.531,1.139,3.9-.761,3.265-2.51a17.01,17.01,0,0,0-8.461-9.179c3.879-2,12.131-7.663,12.639-8.052,6.6-2.838,11.662.443,17.046,4.029,2.461,1.366,4.468-1.685,2.85-3.694a18.729,18.729,0,0,0-11.895-6.9c3.352-2.859,6.665-5.713,10.128-8.306,5.727-1.907,11.6.408,16.729,3.046,1.771.778,4.472-1.013,3.025-3.026a17.859,17.859,0,0,0-9.757-6.259,42.1,42.1,0,0,1,10.676-3.584c3.55-.73,3.953-6.472.491-7.832-26.66-10.9-23.237-45.525-58.227-52.024-2.348-.46-4.569,4.225-2.212,5.545,6.38,3.574,12.8,5.451,18.478,10.4A72.388,72.388,0,0,1,300.7,261.377a1.718,1.718,0,0,1-2.632,2.156c-26.1-27.8-62.652-31.326-93.34-8.543-.878.646-1.915,1.442-2.982,2.275a.929.929,0,0,1-1.283-1.331A88.117,88.117,0,0,1,209.5,246.5c5.433-4.526,11.624-7.781,17.982-10.8a2.973,2.973,0,0,0-2.228-5.5c-31.02,10.31-33.8,35.964-57.153,49.745-1.206.348-2.441.653-3.718.894-4.376.838-3.193,8.128,1.269,7.545a52.653,52.653,0,0,1,10.233,3.6c-4.261,1.058-8.151,3.273-10.433,6.445-1.445,2.009,1.254,3.8,3.025,3.025C174.222,298.378,180.338,296.467,186.68,298.77Zm67-16.364c1.071-11.979,15.311-19.178,25.531-13.153a1.759,1.759,0,0,0,2.461-2.3A39.47,39.47,0,0,0,269.4,252.5c17.125,6.973,27.737,24.544,44.767,32.18-16.391,8.326-27.446,24.507-44.628,31.491a39.466,39.466,0,0,0,12.122-14.353,1.755,1.755,0,0,0-2.38-2.345C267.575,306.373,251.8,296.272,253.675,282.406ZM221.4,254.172c-20.912,16.556-17.9,50.908,4.736,63.841-18.518-6.348-29.585-25.182-47.4-33.268C194.531,276.8,205.2,261.4,221.4,254.172Z"/><text x="0" y="515" fill="#000000" font-size="5px" font-weight="bold" font-family="'Helvetica Neue', Helvetica, Arial-Unicode, Arial, Sans-serif">Created by Maxicons</text><text x="0" y="520" fill="#000000" font-size="5px" font-weight="bold" font-family="'Helvetica Neue', Helvetica, Arial-Unicode, Arial, Sans-serif">from the Noun Project</text></svg>