<svg xmlns="http://www.w3.org/2000/svg" viewBox="0 0 500 625" x="0px" y="0px"><path d="M194.6,488.772c30.1,4.833,104.959,5.193,119.691-2.084,20.369-7.351,54.906-132.5,40.879-215.449a38.557,38.557,0,0,0-10.544-22.518c-9.444-9.812-23.488-24.57-27.723-29.908-9.891-12.47-16.741-26.385-24.652-40-10.018-22.771-12.521-47.922-13.493-72.558-.048-7.6-3.5-20.293,5.021-24.949,13.56-6.647,11.823-31.528-5.689-36.3,7.083-37.4-8.307-39.688-39.9-36.082a14.164,14.164,0,0,0-9.856,5.577c-7.474,10.2-4.859,29.4-4.859,29.4-16.744,4.42-20.67,30.635-7.41,37.275,8.551,4.413,5.332,16.719,5.26,24.26-.965,24.9-3.4,50.352-13.533,73.376-9.468,17.615-40.526,55-54.673,71.683a38.506,38.506,0,0,0-8.866,20.281c-3.825,31.623-9.651,120.48,31.465,198.751C179.768,477.955,183.58,487.157,194.6,488.772ZM217.744,72.931c-4.985-6.161-1.151-17.3,6.134-20.265,7.384-3,55.238-10.353,61.788,13.23,1.309,4.711-3.836,8.544-9.05,9.421-9.035,1.52-38.637.363-43.81.328C227.953,75.621,221.686,76.386,217.744,72.931ZM151.958,276.8a44.647,44.647,0,0,1,8.738-20.735c3.827-5,8.124-9.623,12.37-14.453,29.066-28.644,50.477-66.178,54.247-107.491,1.381-11.955,1.926-23.989,2.263-36.012.121-4.332.01-9.978-1.818-14.389,14.847.479,29.706.07,44.561-.073-1.86,4.422-1.976,10.106-1.85,14.462-.408,57.259,15.2,103.087,56.511,143.518,9.424,10.4,19.525,20.925,21.1,35.488,8.661,61.638-3.906,133.27-30.728,189.748A21.742,21.742,0,0,1,300.016,479.1a466.655,466.655,0,0,1-98.569-.089,21.646,21.646,0,0,1-17.228-12.117C156.887,410.24,142.944,338.914,151.958,276.8Z"/><path d="M247.351,110.458c17.782,3.886,20.072-19.368,13.373-20.169-6.736-.805-13.787-1.48-20.5-.23-3.6.67-2.64,9.485-1.479,12.4C240.262,106.276,243.259,109.563,247.351,110.458Z"/><path d="M215.526,465.853c13.808,1.54,56.818,1.54,70.627,0A26.343,26.343,0,0,0,306.6,451.565c7.315-14.315,19.917-46.516,25.808-87.266a12.506,12.506,0,0,0-12.248-14.276c-31.646.678-18.471-5.116-31.967,21.221-4.981,18.619,10.276,30.892-1.61,53.12-1.379,2.417-5.6.759-4.576-1.929,6.2-15.7,3.257-22.041.99-35.715a1.118,1.118,0,0,0-2.116-.287c-2.392,5.127-4.684,10.3-6.768,15.586-1.27,3.222-6.515,1.844-5.258-1.45q1.607-4.211,3.383-8.361a.729.729,0,0,0-1.009-.936c-3.98,2.085-8.187,3.788-11.723,6.657a2.4,2.4,0,0,1-3.392-3.392c8.235-8.408,18.827-6.977,24.467-20.228,3.152-6.287,11.888-18.142,13.335-50.276.367-8.162,8.6-11.725,16.165-15.208,5.843-3.195,9.676-8.152,8.817-15.113-.329-2.669-3.628-4.832-5.822-2.412-3.246,3.58-8.077,5.9-11.534,9.411A58.426,58.426,0,0,0,290.027,317.4c-3.22-16.659-18.144-38.933-3.124-53.38,5.068-4.909,13.211-9.587,10.07-17.972a2.943,2.943,0,0,0-4.264-1.735c-8.276,5.035-16.12,21.251-16.228,21.428-.4-7.173-1.752-13.478,1.977-21.292,4.474-7.647,8.324-16.4,6.083-25.163-.745-2.913-5.324-1.214-6.167.384-16.563,19.457-8.941,51.337-2.608,74.529A65.339,65.339,0,0,1,265.62,282.64c-2.265-3.252-10.989-19.236-14.827-11.193-3.386,19.073,21.463,23.107,29.322,36.621,3.324,10.685,6.024,21.794,4.509,33.052a39.271,39.271,0,0,0-9.514-11.433c-7.12-6.013-6.356-17.016-11.865-24.556-1.325-1.813-4.457-1.845-5.081.664-5.027,28.844,24.163,27.917,22.439,44.228H217a4.575,4.575,0,0,0-4.33,3.071c-2.933,8.538-1.509,17.639.088,26.44,7.029,22.65,25.67,14.114,36.09,37.146,1.429,3.293-3.439,6.142-4.851,2.835-5.656-14.609-16.21-14.915-25.591-22.451a1.3,1.3,0,0,0-2.061,1.311,169.54,169.54,0,0,0,10.02,31.937c1.383,3.141-3.245,5.88-4.647,2.717-1.559-3.515-2.946-7.073-4.2-10.667a1.089,1.089,0,0,0-2.081.087c-1.767,6.66-3.328,12.811-2.379,20.022.374,3.06-3.977,3.02-4.919.665-5.019-12.543,6.348-25.138,4.352-37.87-2.254-9.1-4-18.351-5.713-27.633-1.733-9.385-4.331-29.533,10.078-45.391,5.31-5.843,10.179-13.21,7.115-21.476a3.2,3.2,0,0,0-5.77-.754c-6.88,10.418-13.147,22.019-16.558,34.117-3.3-18.467-4.269-39.691,6.944-56.138,5.392-5.9,12.668-8.5,20.387-9.5,7.16-1.392,14.408-6.742,12.15-14.872-.621-2.237-2.958-2.861-4.886-1.987-8.329,3.773-17.669,7.747-24.8,13.9,9.43-20.087,17.579-47.706,43.157-50.513,5.147-2.232,7.228-6.939,8.881-11.989.856-2.616-2.1-4.1-4.172-3.207a92.1,92.1,0,0,0-19.452,11.32c3.5-13.545,9.37-26.024,14.864-38.864,2.939-6.808,7.3-20.118,1.8-27.045-2.85-6.061-11.777-7.907-9.4,1.236a144.453,144.453,0,0,1-4.441,36.616,36.73,36.73,0,0,0-4.1-10.2c-.61-2-3.708-2.624-4.859-.621-5.341,9.783,6.513,16.457,2.277,30.741a195.934,195.934,0,0,1-11.333,22.08,119.727,119.727,0,0,0-11.288,17.628,131.841,131.841,0,0,0-.413-29.152,3.067,3.067,0,0,0-5.579-1.136c-8.958,11.706-2.369,26.383-2.438,39.443-1.071,5.637-2.593,11.118-4.162,16.6a122.188,122.188,0,0,0-8.438,44.607c-6.68-7.423-9.706-16.382-13.188-25.583-2.387-5.8-6.564-13.376-13.4-14.261a1.784,1.784,0,0,0-1.9,1.275c-1.769,1.9.953,6.963,1.472,9.421,1.718,10.78,8.624,18.291,15.948,26.046,10.921,10.956,11.247,15.619,14.032,30.052H181.514A12.506,12.506,0,0,0,169.266,364.3c5.891,40.75,18.494,72.951,25.808,87.266A26.345,26.345,0,0,0,215.526,465.853Zm49.838-54.081c5.42-.983,7.02,7.054,1.635,8.22C261.579,420.976,259.98,412.939,265.364,411.772Z"/><text x="0" y="515" fill="#000000" font-size="5px" font-weight="bold" font-family="'Helvetica Neue', Helvetica, Arial-Unicode, Arial, Sans-serif">Created by Maxicons</text><text x="0" y="520" fill="#000000" font-size="5px" font-weight="bold" font-family="'Helvetica Neue', Helvetica, Arial-Unicode, Arial, Sans-serif">from the Noun Project</text></svg>