<svg xmlns="http://www.w3.org/2000/svg" viewBox="0 0 500 625" x="0px" y="0px"><path d="M29.672,225.86c11.732,26.407,24.4,52.393,37.748,78.02,2.1,4.017,4.142,8.321,7.651,11.329,3.29,2.822,7.35,3.718,11.523,4.363,68.033,9.917,140.451,14.531,199.755,52.85,18.835,12.065,35.944,26.557,52.483,41.558,17.6,16.521,33.178,33.807,59.034,35.1,29.263,3.278,57.436-8.55,81.547-24.045,16.848-8.139,9.576-75.3,5.7-91.8-2.89-15.132-17.464-2.636-24.8,1.638-5.372,3.3-55.341,35.657-48.409,40.273a3.115,3.115,0,0,0,4.779,2.317c7-3.979,13.939-8.029,21.292-11.337,6.343-2.831,16.8-9.338,17.966,2.171,1.143,7.3-.479,15.546-2.551,22.539-1.433,4.831-3.085,7.408-8.394,7.962a269.537,269.537,0,0,1-38.23.7c-8.295-.415-16.087-.753-22.35-7.1-23.952-24.263-47.2-62.868-51.056-81.81a109.609,109.609,0,0,1-1.564-33.676c2.863-17.463,7.664-32.3,12.8-49.261,10.7-29.345,22.88-80.369,61.406-94.6,2.827-1.348,5.2,2.56,2.479,4.242-9.316,5.751-15.862,13.951-23.024,21.538a11.579,11.579,0,0,0-2.862,10.525c4.691,20.611,10.365,46.448,17,59.085a3.819,3.819,0,0,0,4.238,1.725c21.538-5.24,43.333-9.878,64.7-15.789,15.037-3.312,27.952-16.973,25.563-33.032a60.456,60.456,0,0,0-.734-13.876c-.615-3.848-6.33-3.328-7.278,0-1.253,4.4-2.527,8.984-7.18,10.756-4.917,1.872-31.663,3.409-39.77,2.569,0,0-2.444-35.583,15.012-80.789,2.575-6.669,7.791-16.006,3.072-22.824-4.075-5.888-13.231-6.494-19.561-7.8-9.581-1.983-67.462-12.052-86.891-14.571-17.406-1.435-49.925-8.971-64.768-.454-40.17,34.694-96.463,113.185-111.867,135.761a10.62,10.62,0,0,0-.4,11.348c17.1,31.7,43.371,57.834,75.162,73.659a3.077,3.077,0,0,1-2.608,5.574c-9.553-4.526-22.082-9.594-30.606-16.146-21.668-16.679-36.869-35.815-52.5-59.732a4.114,4.114,0,0,0-4.1-1.632c-.772.123-17.341-1.137-24.648-1.9-33.8-2.782-57.056-2.616-75.157-35.721-14.724-22.071-25.893-59.5,3.352-74.9,4.3-2.015,8.584-2.891,11.519,1.485,6.732,11.032,10.684,23.657,12.576,36.4.63,4.326,7.3,3.087,7.4-1A232.3,232.3,0,0,0,83.9,53.649a4.015,4.015,0,0,0-4.882-2.771C55.037,59.255,32.736,72.936,15.524,91.69a3.048,3.048,0,0,0-2.294,2.446c-5.129,22.455-9.716,45.057-6.6,68.153C9.627,184.512,20.679,205.575,29.672,225.86Zm257.864,30.564a33.471,33.471,0,0,1,31.6,4.159,2.072,2.072,0,0,1-1.477,3.721c-17.519-2.733-33.319,14.823-28.588,32.074A26.007,26.007,0,0,0,311.4,315.943a2.08,2.08,0,0,1,.8,3.888c-17.779,9.946-38.031-4.485-44.012-20.14A33.514,33.514,0,0,1,287.536,256.424Z"/><text x="0" y="515" fill="#000000" font-size="5px" font-weight="bold" font-family="'Helvetica Neue', Helvetica, Arial-Unicode, Arial, Sans-serif">Created by Maxicons</text><text x="0" y="520" fill="#000000" font-size="5px" font-weight="bold" font-family="'Helvetica Neue', Helvetica, Arial-Unicode, Arial, Sans-serif">from the Noun Project</text></svg>