<svg xmlns="http://www.w3.org/2000/svg" viewBox="0 0 500 625" x="0px" y="0px"><path d="M426.386,320.258c1.924-2.98-2.736-6.726-5-3.858-6.588,8.342-20.379,5.434-29.471,3.883-16.305-4.033-33.212-7.192-50.16-5.917-.809-4.838-5.1-5.3-8.848-7.307-4.45-2.387-6.269-5.606-11.816-5.358-6.784,1.061-10.645-.88-16.461-4.213-4.918-3.408-10-6.637-14.608-10.489-14.915-17.518-22.854-39.258-32.823-59.924C200.106,112.226,89.193,128.651,49.961,61.247,42.1,47.608,34.549,28.554,28.051,13.3a3.331,3.331,0,0,0-5.362-1.107S9.565,22.517,6.5,35.968A25.958,25.958,0,0,0,6.8,50.362a185.251,185.251,0,0,0,38.087,63.25c24.464,29.882,26.426-2.128,86.928,34.565,1.3,7.691-.093,15.721.008,23.509-.153,5.363-.313,13.9-.421,20.152-.421,10.271,5.008,22.612,10.7,30.145,2.073,2.48,5-.518,4.056-3.319-8.224-24.313.2-50.486,1-60.734,7.385,4.917,14.724,9.883,21.922,15.069,5.958,29.5-1.174,60.186.463,90.055a6.173,6.173,0,0,0,1.237,4.792c1.45,1.8,3.974.529,4.509-1.324a2.45,2.45,0,0,0,.962-1.5,20.525,20.525,0,0,1,2.419-5.92c1.113,5.057,2.3,10.094,3.247,15.193a2.625,2.625,0,0,0,.6,1.274c-.3,4.512,6.733,4.543,6.975.042,1.471-27.661,3.342-55.344,4.364-83.031,18.259,16.162,33.547,34.731,44.108,56.991,12.071,25.443,23.236,55.6,51.991,65.895-.412,4.4,2.594,6.043,5.287,8.538,1.562,1.493.743,3.575,1.135,5.653a8.725,8.725,0,0,0,1.562,3.563,6.806,6.806,0,0,0,4.343,3.711,3.13,3.13,0,0,0,2.374.6c3.461,15.043,3.83,30.534,8.248,45.535,1.966,15.957,2.612,32.258.209,48.209-1.562,10.209-5.132,19.408-8.041,29.215-1.135,3.829,4.583,6.329,6.5,2.742,7.991-16.376,9.455-35.482,9.785-53.508,6.173,20.1,19.25,35.624,33.761,49.983a81.131,81.131,0,0,1,10.5,12.187c2.982,4.544,4.165,9.011,5.021,14.3.652,4.031,6.833,2.9,6.921-.937.132-5.812-2.184-11.317-5.361-16.243,16.5,9.419,35.43,13.82,55.3,10.219,4.388-1.321,1.912-6.609.489-9.357a334.006,334.006,0,0,0,56.068-2.753,3.8,3.8,0,0,0,2.126-.991c7.412-2.185,8.081-11.984,8.168-18.895.5-28.24-5.545-60.22-28.536-79.113A26.773,26.773,0,0,0,476.5,354.945c.865-2.189-1.373-5.095-3.7-4.858-22.5,1.976-40.512-14.252-60.247-22.333C418.1,327.086,423.294,325.048,426.386,320.258ZM119.368,132.234a118.834,118.834,0,0,0-29.2-10.283c-25.064-9.437-33.011-10.682-49.116-33.986-9.885-13.3-19.648-27.652-23.8-43.752a22.767,22.767,0,0,1,5.869-21.7C48.4,78.469,62.023,97.8,120.267,121.5,119.86,125.027,119.458,128.652,119.368,132.234Zm8.6,4.493a20.221,20.221,0,0,1-1.944-5.875c.419-2.107.755-4.239,1.061-6.354,2.419,1.068,4.825,2.139,7.224,3.245a62,62,0,0,0,3.63,14.825Q133.027,139.529,127.965,136.727Zm20.457,12.384c-.958-.61-1.911-1.23-2.87-1.834a85.975,85.975,0,0,1-4.707-16.477q5.351,2.56,10.626,5.294A58.842,58.842,0,0,0,148.422,149.111Zm14.127,9.314q-3.936-2.691-7.916-5.3a59.674,59.674,0,0,1,3.061-13.736q3.978,2.161,7.892,4.434A44.081,44.081,0,0,0,162.549,158.425Zm4.829,3.353a54.635,54.635,0,0,1,3.377-14.9q2.693,1.632,5.341,3.325A72.769,72.769,0,0,0,178.8,170.09Q173.163,165.841,167.378,161.778Zm23.711,17.972q-2.2-1.8-4.43-3.576a94.068,94.068,0,0,1-4.117-21.749q6.963,4.708,13.573,9.856C193.251,168.654,191.7,174.305,191.089,179.75Zm17.06,15.158c-3.708-3.648-7.6-7.215-11.62-10.572a38.614,38.614,0,0,1,5.239-15.516q3.554,2.953,6.97,6.053C206.913,181.482,207.665,188.334,208.149,194.908Zm6.922,7.145c-.768-7.039-1.481-14.094.063-21.121q5.5,5.435,10.552,11.3a48.1,48.1,0,0,0-5.543,15.534Q217.673,204.864,215.071,202.053Zm79.56,105.181c-.255.374-.5.752-.752,1.131-26.244-8.446-36.938-36.775-47.454-59.551a178.47,178.47,0,0,0-21.142-34.7,52.17,52.17,0,0,1,5.264-15.949c25.857,29.871,30.432,74.95,61.247,100.872C293.9,301.186,295.269,304.537,294.631,307.234Zm77.378,27.6c2.249-1.191,8.53.9,10.808,1.786,26.027,10.811,58.72,30.449,75.3,55.416,2.213,3.362,2.9,8.844-1.062,9.024a1.887,1.887,0,0,0-.8-.085c-27.8-30.733-80.737-55.215-84.2-58.7C370.244,339.759,368.9,336.482,372.009,334.833Zm-68.658-18.5a3.041,3.041,0,0,1-1.235-2.413,91.567,91.567,0,0,1,15.15-3.247,32.062,32.062,0,0,1,3.784.139,17.988,17.988,0,0,1,2.117,2.158c-5.916.884-11.648,2.867-17.366,4.583A11.393,11.393,0,0,1,303.351,316.332Zm10.654,11.494c-3.549.26-5.636-.557-4.814-4.1,5.46-1.834,11.306-2.375,16.714-4.278.12.589.245,1.19.389,1.81A67.629,67.629,0,0,1,314.005,327.826Zm99.47,111.6c-37.393-17.565-71.222-46.795-87.244-85.3a1.852,1.852,0,0,1,3.145-1.888,341.92,341.92,0,0,0,88.5,77.289C429.014,437.243,426.405,441.994,413.475,439.431Zm52.807-11.189c-1.229.744-2.671.345-4.125-.316a343.854,343.854,0,0,0-36.406-27.508c-2.691-1.755-5.055,2.458-2.492,4.263,8.2,5.774,16.238,11.726,24.055,17.979,3.565,2.843,5.443,8.223,2.467,12.058-6.077,1.582-12.541-1.349-18.118-3.794a329.221,329.221,0,0,1-93.6-77.855,1.859,1.859,0,0,1,2.418-2.761c18.719,11.757,37.349,23.606,56.136,35.255,2.714,1.67,5.029-2.457,2.469-4.223-18.4-12.549-37.34-24.25-56.124-36.211a1.856,1.856,0,0,1,1.61-3.317c46.239,16.41,90.068,42.042,120.816,80.961A10.464,10.464,0,0,1,466.282,428.242Zm.147-70.272c-1.687,2.095-5.394,4.044-9.445,5.685a3.343,3.343,0,0,0-1.123,5.447c5.925,6.009,17.086,17.984,19.238,24.955.462,1.541,1.866,4.986,1.057,6.487-.917,1.7-1.926,2-2.881,1.6C451.093,368.436,417.067,342.678,380,327.31a1,1,0,0,1-.571-1.243,1.02,1.02,0,0,1,1.194-.7,159.819,159.819,0,0,1,29.607,9.626C428.441,342.989,446,357.2,466.429,357.97Z"/><path d="M408.8,390.489c-5.384,1.166-3.785,9.2,1.636,8.22C415.819,397.542,414.22,389.505,408.8,390.489Z"/><text x="0" y="515" fill="#000000" font-size="5px" font-weight="bold" font-family="'Helvetica Neue', Helvetica, Arial-Unicode, Arial, Sans-serif">Created by Maxicons</text><text x="0" y="520" fill="#000000" font-size="5px" font-weight="bold" font-family="'Helvetica Neue', Helvetica, Arial-Unicode, Arial, Sans-serif">from the Noun Project</text></svg>