<svg xmlns="http://www.w3.org/2000/svg" viewBox="0 0 500 625" x="0px" y="0px"><path d="M404.249,207.424c-.32-2.8-3.433-5.153-7.353-2.592a458.837,458.837,0,0,0-47.739,36.24c-1.781-13.155-4.05-26.233-6.508-39.274-1.061-4.9-.859-11.872-4.855-15.341-4.7-5.087-10.76,5.118-13.82,8.167-7.774,9.058-15.693,18.043-22.408,28-13.829-38.454-28.022-76.979-45.329-114.029-1.4-2.941-5.574-4.739-8.992,2.961-15.958,35.943-29.692,72.851-42.567,110.048-17.907-27.637-35.671-55.864-57.557-80.521-.748-2.408-5.179-2.95-6.461.187a315.624,315.624,0,0,0-17.555,58.058c-2.463,12.615-5.144,43.889-6.081,55.41a21.024,21.024,0,0,0,1.438,9.646c4.589,11.26,13.875,22.839,17.216,27.425-4.822,16.051-11.758,45.631-14.31,56.694a16.035,16.035,0,0,0,.958,10.269c11.4,18.584,24.685,34.217,38.34,50.985-15.664-6.73-30.439-9.139-48.053-13.3a3.348,3.348,0,0,0-3.75,4.74c5.315,10.84,16.232,32.924,22.227,43.779,10.785,21.136,49.622,29.5,71.047,38.3,47.784,15.475,78.831,13.778,120.491,13.649a46.335,46.335,0,0,0,25.649-7.739c10.4-6.91,69.313-53.018,85.25-65.964A3.975,3.975,0,0,0,431,416.171l-40.078.2c16.808-9.462,47.938-31.395,57.877-38.464a8.8,8.8,0,0,0,3.628-6.054L460.87,306.2a4.846,4.846,0,0,0-6.426-5.189c-13.992,4.972-43.222,15.42-47.42,17.434A632.634,632.634,0,0,0,404.249,207.424ZM259.9,468.234c-6.036,3.974-14.937-5.534-18.016-11.684-12.244-19.816-21.718-41.136-31.278-62.329-9.166-17.562-10.273-32.138-1.932-50.39,2.991-5.73,5.949-11.479,8.939-17.206,1.559-2.987-2.837-5.6-4.537-2.652-6.768,10.412-11.151,22.534-17.473,33.241-3.159,4.222-6.81,3.305-11.318,2.776-5.044-.577-27.58-7.237-41.885-11.563a13.721,13.721,0,0,1-9.391-16.2c6.353-27.837,15.2-55.089,27.691-80.838l.528-.114c22.559,18.886,44.276,39.2,63.378,61.554,13.98,46.4,29.046,92.593,38.817,140.148C263.938,459,264.277,465.171,259.9,468.234Zm33.445-100.685c-1.907,4.814-11.37,44.56-19.516,35.953a799.732,799.732,0,0,1-2.267-95.636c3.319-14.942,15-25.175,24.962-36.126a3.806,3.806,0,0,0-5.43-5.327c-8.689,8.177-17.311,17.079-28.2,22.059-7.827.633-14.529-5.477-20.937-9.186a106.91,106.91,0,0,1-18.176-16.123c-24.158-27.279-7.564-52.785,2.62-81.569,8.128-21.317,16.168-42.92,25.793-63.634,19.852,46.552,38.32,93.712,53.945,141.868C306.752,289,299.186,342.3,293.341,367.549Zm76.364,26.61c-16.013,19.819-32.522,39.239-50.055,57.677-2.769,3.377-7.464,6.624-12.071,6.094-15.164-1.594,4.224-37.079,7.3-44.711,19.345-39.345,18.177-63.89,67.232-74.567a2.1,2.1,0,0,0,.024-4.062c-3.7-1-8.056-2.214-11.656-3.3a9.35,9.35,0,0,1-6.5-10.7c3.919-20.752,23.118-70.308,27.607-84.766.974-3.137-4.019-5.386-5.415-2.282-11.48,27.622-21.8,55.807-34.016,83.155a4.537,4.537,0,0,1-8.346-.162,118.022,118.022,0,0,1-8.25-34.472,24.631,24.631,0,0,1,6.656-18.77c16.9-17.971,35.958-33.723,55.591-48.586a730.678,730.678,0,0,1-.142,134.018A173.785,173.785,0,0,1,381.85,377.5C377.6,382.881,372.751,388.059,369.705,394.159Zm81.625-82.553a136.409,136.409,0,0,1-2.734,31.283c-1.7,10.629-4.545,19.656-14.565,25.134a268.151,268.151,0,0,1-41.427,21.4c-8.62-4.1,9.638-23.969,12.192-29.548,3.224-5.48,1.465-10.126,1.131-16.3.091-5.654.564-11.266.784-16.968A347.739,347.739,0,0,1,451.33,311.606Z"/><path d="M30.113,314.251c13.09.845,24.207,12.235,28.325,29.016,2.79,11.379,7.756,35.707,7.806,35.951.873,4.474,7.713,3.952,7.8-.681,2.017-29.484-6.208-70.734,38.875-72.945,5.059-.722,4.188-8.377-.973-7.821-15.028,1.295-37.97-.5-43.539-24.857-2.81-12.9-6.865-37.882-6.905-38.133-.737-4.693-7.913-4.14-7.828.684C52.66,267.609,63.435,302,14.912,306.247c-5.13.335-4.762,8.029.4,7.87A147.1,147.1,0,0,1,30.113,314.251Zm31.1-37.594c3.85,13.835,14.341,24.544,27.147,27.176-13.283,6.953-21.163,24.9-21.034,42.8-2.977-17.65-13.847-33.955-28.136-38.5C51.345,303.318,59.823,290.948,61.213,276.657Z"/><path d="M133.4,77.66c-5.129.335-4.762,8.029.4,7.87a147.1,147.1,0,0,1,14.8.134c13.09.845,24.207,12.236,28.324,29.017,2.791,11.378,7.757,35.706,7.807,35.95.872,4.474,7.712,3.952,7.8-.681,2.017-29.483-6.208-70.734,38.875-72.945,5.059-.722,4.188-8.377-.973-7.82-15.028,1.294-37.97-.5-43.54-24.858-2.809-12.9-6.864-37.882-6.9-38.133-.737-4.692-7.913-4.14-7.828.684C171.153,39.023,181.928,73.417,133.4,77.66Zm46.3-29.589c3.85,13.834,14.34,24.543,27.147,27.175-13.284,6.953-21.164,24.9-21.034,42.8-2.977-17.649-13.847-33.955-28.136-38.5C169.837,74.731,178.315,62.361,179.706,48.071Z"/><path d="M485.245,178.461c-14.957-1.943-36.988-8.591-37.23-33.578.008-13.2,1.379-38.474,1.393-38.728.282-4.741-6.847-5.733-7.794-1-7.849,31.187-4.663,67.089-52.974,60.878-5.083-.767-6.366,6.827-1.291,7.773a147.279,147.279,0,0,1,14.434,3.291c12.608,3.62,21.038,17.12,21.478,34.393.3,11.712-.043,36.539-.046,36.789-.1,4.557,6.692,5.506,7.764,1,8.263-28.373,9.032-70.429,53.548-62.966C489.623,186.683,490.406,179.019,485.245,178.461Zm-54.018,38.211c.859-17.879-6.28-36.129-19.27-43.621,12.9-2.106,23.824-12.381,28.233-26.045.808,14.337,8.771,27.039,20.721,32.343C446.45,183.307,434.92,199.161,431.227,216.672Z"/><text x="0" y="515" fill="#000000" font-size="5px" font-weight="bold" font-family="'Helvetica Neue', Helvetica, Arial-Unicode, Arial, Sans-serif">Created by Maxicons</text><text x="0" y="520" fill="#000000" font-size="5px" font-weight="bold" font-family="'Helvetica Neue', Helvetica, Arial-Unicode, Arial, Sans-serif">from the Noun Project</text></svg>