<svg xmlns="http://www.w3.org/2000/svg" viewBox="0 0 1050 812.5" x="0px" y="0px"><path d="M525,235.509a89.819,89.819,0,0,0-89.819,89.819c4.109,118.9,175.547,118.869,179.638,0A89.818,89.818,0,0,0,525,235.509Z"/><path d="M323.524,247.528a77.7,77.7,0,0,0-11.181.933,3.755,3.755,0,0,0-1.017,7.085c56.371,27.163,40.1,112.664-23.386,116.445a61.475,61.475,0,0,1-18.641-1.908,3.756,3.756,0,0,0-3.808,6.067c46.55,54.406,137.819,20.7,136.7-52.013C401.558,281.541,366.123,247.052,323.524,247.528Z"/><path d="M282.324,331.734a21.867,21.867,0,0,0,21.866-21.867c-1-28.947-42.737-28.94-43.733,0A21.867,21.867,0,0,0,282.324,331.734Z"/><path d="M40.688,291.169A34.158,34.158,0,0,0,6.53,325.328c1.562,45.219,66.762,45.207,68.318,0A34.159,34.159,0,0,0,40.688,291.169Z"/><path d="M207.047,288.585a4.466,4.466,0,0,0-.715,6.275c25.563,31.195,2.011,79.988-38.355,79.449a48.981,48.981,0,0,1,0-97.962,4.466,4.466,0,0,0,0-8.931,57.912,57.912,0,0,0,0,115.824c47.729.627,75.575-57.051,45.342-93.941A4.463,4.463,0,0,0,207.047,288.585Z"/><path d="M192.249,282.783c5.244-1.079,3.77-8.905-1.507-8C185.5,275.859,186.972,283.684,192.249,282.783Z"/><path d="M780.7,370.083c-72.4,16.907-107.55-81.451-42.026-114.537a3.755,3.755,0,0,0-1.018-7.085,77.7,77.7,0,0,0-11.181-.933c-42.6-.476-78.034,34.013-78.67,76.61-1.11,72.716,90.157,106.421,136.7,52.011A3.756,3.756,0,0,0,780.7,370.083Z"/><path d="M767.676,288a21.867,21.867,0,0,0-21.867,21.867c1,28.946,42.738,28.939,43.734,0A21.867,21.867,0,0,0,767.676,288Z"/><path d="M1009.311,291.169a34.158,34.158,0,0,0-34.158,34.159c1.562,45.219,66.762,45.207,68.317,0A34.158,34.158,0,0,0,1009.311,291.169Z"/><path d="M882.022,267.416c-47.73-.626-75.575,57.05-45.342,93.941a4.465,4.465,0,1,0,6.987-5.561c-25.562-31.2-2.01-79.988,38.356-79.448,64.824,2.3,64.813,95.668,0,97.961a4.466,4.466,0,1,0,0,8.931C958.662,380.525,958.656,270.126,882.022,267.416Z"/><path d="M857.751,367.873c-5.244,1.08-3.77,8.905,1.507,8C864.5,374.8,863.028,366.972,857.751,367.873Z"/><text x="0" y="665" fill="#000000" font-size="5px" font-weight="bold" font-family="'Helvetica Neue', Helvetica, Arial-Unicode, Arial, Sans-serif">Created by Maxicons</text><text x="0" y="670" fill="#000000" font-size="5px" font-weight="bold" font-family="'Helvetica Neue', Helvetica, Arial-Unicode, Arial, Sans-serif">from the Noun Project</text></svg>