<svg xmlns="http://www.w3.org/2000/svg" viewBox="0 0 500 1125" x="0px" y="0px"><path d="M190.184,195.416c-.8-3.756-1.475-12.239-6.782-11.631-2.486.328-3.646,2.42-4.414,4.564a24.668,24.668,0,0,0-1.735,7.918c.086,3.331,4.483,2.619,4.865-.2a1.635,1.635,0,0,1,2.4-.18c.14,4.333,6.747,3.833,5.669-.475Z"/><path d="M177.355,171.277a3.92,3.92,0,0,0-1.384-2.5c-6.814-8.552-19.723,5.74-17.344,13.715,1.3,5.921,8.239,9.233,13.349,5.577C176.905,184.542,178.247,176.865,177.355,171.277Z"/><path d="M192.024,165.329C180.21,168.315,187,183.942,196,186.157,210.272,188.709,202.611,163.219,192.024,165.329Z"/><path d="M166.548,274.582a4.409,4.409,0,0,0,.927-6.944,4.645,4.645,0,0,0-6.816.66,2.149,2.149,0,0,0-.549.943C158.269,272.956,163.236,276.961,166.548,274.582Z"/><path d="M152.237,292c-2.3.4-5.594.4-6.5,2.987-2.082,2.149.2,4.878,1.751,6.565a35.074,35.074,0,0,0,3.681,4.219c-1.932,3.281-2.847,7.607-3.33,11-.374,2.62,2.054,5.113,4.682,3.6q5.9-3.394,11.745-6.863a49.2,49.2,0,0,0,4.165,3.8c2.029,1.82,3.932,3.94,6.856,3.878a3.482,3.482,0,0,0,3.4-3.4,79.185,79.185,0,0,0-.066-11.444c3.115-2.893,7.954-5.592,7.839-10.326-.42-5.287-9.381-4.2-13.262-4.721-1.182-4-4.585-9.64-8.583-9.7-4.239-.118-6.248,6.391-7.788,9.684A34.167,34.167,0,0,0,152.237,292Zm8.82,2.892c1.632-1.639,2.431-3.937,3.711-5.933,1.416,1.907,2.049,4.183,2.944,6.341a2.643,2.643,0,0,0,1.786,1.417c1.778,1.8,4.8,1.248,7.127,1.7-2.148,1.882-6.106,4-5.155,7.345q.258,2.837.36,5.68c-1.709-1.563-3.173-3.22-5.3-4.052a2.981,2.981,0,0,0-3.87-.547c-2.392,1.417-4.767,2.861-7.149,4.293.4-1.295.99-2.564,1.442-3.853a3.145,3.145,0,0,0-.042-5.333,22.759,22.759,0,0,1-4.281-3.914C155.442,297.735,160.205,298.393,161.057,294.894Z"/><path d="M279.2,527.8c3.846-21.673,5.9-45.425,21.256-62.557a4.014,4.014,0,0,0,1.026-3.881c-3.426-10-6.739-20.039-10.377-29.959a3.775,3.775,0,0,0-2.993-2.513,3.9,3.9,0,0,0-4.406.462c-9.94,8.242-13.265-17.581-14.555-22.734-8.39-32.228-14.7-64.714-21.479-97.332-8.249-67.961,39.049-108.452,83.694-150.668.4,18.128-.943,35.985.151,54.019a22.236,22.236,0,0,0-5.582,4.651c-4.622,5.951-1.887,15.25,5.136,17.878.164,4.783-.146,9.5.323,14.281-28.261,12.493-10.564,53.487,17.836,41.617a1.371,1.371,0,0,0-.4-2.585c-8.4-1.488-14.354-8.341-14.354-16.256A16.662,16.662,0,0,1,353.311,255.7a1.372,1.372,0,0,0,1.1-2.393,22.556,22.556,0,0,0-15-5.426c-.225-4.448-.4-8.053-.5-12.333a13.047,13.047,0,0,0,8.478-7.4c1.994-4.674,1.053-13.041-3.842-15.495a10.414,10.414,0,0,0-5.024-2.167c.278-14.192-.053-28.406-.18-42.6-.221-6.25.4-13.068,2.8-19.14,12.743-12.846,25.468-28.195,22.152-47.489-.947-7.353-1.6-14.916-2.9-22.248-.614-3.4-.894-6.975-2.645-9.759a4.11,4.11,0,0,0-7.914-.282c-10.687,26.188-24.889,51.314-43.527,72.657-2.057.21-2.709,2.8-3.765,4.3-20.081,22.326-43.041,41.638-62.156,64.911q-.611-21.252-1.716-42.485c-.846-16.037-.692-32.924-4.644-48.575-3.744-14.831-12.735-28.056-21.061-40.675C194.907,52.42,174.781,26.467,150.63,4.99a3.791,3.791,0,0,0-5.756.8c-4.03.393-9.451,19.063-8.619,22.708a3.325,3.325,0,0,0,1.03,3.25c12.55,12.157,25.291,24.469,36.217,38.174-.118,12.973.082,25.866-.135,38.847-6.538,2.572-6.36,13.292.776,14.908,8.879,4.186,15.56-9.371,7.513-14.5-.135-9.459-.008-18.85-.059-28.3,15.538,21.982,21.366,48.253,23.594,74.518a35.212,35.212,0,0,0-23.927-8.8c-.347-2.375-.624-4.741-.742-7.153-.136-2.777.169-4.8-2.234-6.576a2.425,2.425,0,0,0-2.5,0c-4.007,2.376-2,10.424-1.737,14.458-20.005,3.1-36.1,26.307-26.227,46.087,2.741,6.493,9.026,9.44,13.453,14.689-1.427,6.94-.426,15.142-.816,22.345.4,8.553-1.23,17.748.86,26.048a3.23,3.23,0,0,0,6.171,0c1.34-3.994.969-8.313.944-12.48-.049-7.054-.072-14.107-.147-21.16,12.953,1,38.465,6.041,36.648-14.314-.149-4.191,4.291-6,6.6-8.971,6.717-9.3,6.754-22.45,2.134-32.611q-.091-1.389-.189-2.778c6.349,1.494,12.364,3.837,17.146,8.314q.712,14.25,1.195,28.511c-1.538,7.028-2.257,14.2-3.673,21.264-1.136,5.665-3.815,12.079-3.72,17.991-.139.638-.289,1.272-.4,1.917a3.517,3.517,0,0,0,6.777,1.868c12.463-32.9,41.607-55.591,65.741-80.032-.458,4.472-.2,10.388,2.119,14.853-37.889,35.11-69.083,82.982-56.946,136.743,1.246,6.567,2.364,12.966,3.637,19.486-5.061,3.152-10.175,7.253-13.726,12.213-5.583-26.475-12.5-52.921-15.195-79.889-1.562-19.026-.417-38.428-2.966-57.351-.455-3.382-5.39-2.235-5.62.76-.666,33.768-.011,68.053,9,100.841,12.114,52.449,19.753,105.88,28.425,158.964a117.571,117.571,0,0,0-.414,13.755c-9.759,65.2-22.688,129.8-32.639,194.955-3.624,14.844-3.16,30.913-.027,45.888,12.926,53.386,23.856,110.078,6.091,163.693a3.622,3.622,0,0,0,2.668,4.815c2.634,2.334,5.406,1.877,8.791,1.829q5.454-.063,10.91-.056c6.749.018,14.155,1.172,20.774-.137a3.185,3.185,0,0,0,2.49-3.774,348.327,348.327,0,0,0,.791-121.326c-10.466-50.564-21.113-70.167-9.354-123.96C262.6,606.671,272.132,567.441,279.2,527.8Zm61.889-306.569c1.055,3.805-3.69,10.02-8.353,6.442-3.29-2.629-1.3-6.88,2.124-8.327A6.979,6.979,0,0,1,341.088,221.231Zm-23.9-80.115c14.762-17.811,26.156-38.186,35.754-59.149,1.652,11.725,3.09,24.107.649,35.842C346.8,133.354,333.409,145,321.539,156.924A25.916,25.916,0,0,1,317.184,141.116ZM305.2,154.922q2.817-3.058,5.555-6.182c.79,4.535,2.173,9.574,5.183,13.583q-5.969,5.709-11.951,11.4C301.927,167.594,303.165,160.873,305.2,154.922ZM173.594,58.191c-9.385-10.82-19.73-20.869-30.013-30.75a65.359,65.359,0,0,1,4.308-14.533c8.831,9.248,17.865,18.234,26.249,27.918C173.321,46.5,173.841,52.445,173.594,58.191Zm7.96,9.723c-.046-6.159-.077-12.318-.195-18.477,8.964,10.934,17.169,22.386,25.082,34.109-3.752,2.366-6.02,7.368-7.5,12.478A144.838,144.838,0,0,0,181.554,67.914Zm20.852,36.506a30.343,30.343,0,0,1,8.17-14.734,150.859,150.859,0,0,1,10.723,18.54c-5.98,1.387-10.526,7.3-13.676,13.527A147.519,147.519,0,0,0,202.406,104.42Zm4.168,87.857c-1.5,2.972-3.882,4.488-6.127,6.769a11.28,11.28,0,0,0-3.024,10.194c.222,4.227-2.038,6.422-5.346,7.024-.063-3.05.583-6.161-.152-9.155-.736-2.834-5.275-3.006-5.911,0a93.875,93.875,0,0,0-.87,9.407c-2.041-.125-3.972-.292-5.99-.517a37.9,37.9,0,0,1,.072-8.87c.349-3.832-6.2-4.773-6.781-.918a42.228,42.228,0,0,0-.51,9.518c-2.327.356-3.109-.255-3.727-2.541a19.636,19.636,0,0,0-.292-3.667,14.92,14.92,0,0,0-4.667-10.129c-6.352-5.228-11.086-10.971-10.511-19.7C158.458,138.146,221.343,151.841,206.574,192.277Zm4.542-51.65q-.671-4.818-1.54-9.59c3.21-6.519,7.2-13.705,14.6-15.944a80.961,80.961,0,0,1,4.289,18.9A38.774,38.774,0,0,0,211.116,140.627Zm1.8,16.295q-.372-4.316-.844-8.612c5.5-3.262,10.536-5.753,17.09-6.777.494,7.057.63,14.156.961,21.009A49.136,49.136,0,0,0,212.918,156.922ZM267.7,430.452c-7.366,3.684-12.228,8.3-18.232,13.807-1.093-6.66-2.261-13.3-3.38-19.922a71.758,71.758,0,0,1,17.276-8.655C264.577,420.7,265.631,425.785,267.7,430.452Zm-34.432-75.7c4.269-4.206,8.375-8.721,13.678-11.69q1.858,9.227,3.834,18.428a39.6,39.6,0,0,0-14.406,8.321C235.418,364.774,234.357,359.759,233.272,354.751Zm4.584,22.819c4.356-3.546,8.943-7.046,14.65-8.12,1.62,7.376,3.281,14.743,5.05,22.085a61.256,61.256,0,0,0-17.284-.9Q239.089,384.1,237.856,377.57Zm6.835,38.443q-1.516-9.052-3.112-18.09c6.191-.438,12.148,1.624,18.138,2.592q.878,3.6,1.769,7.19A59.4,59.4,0,0,0,244.691,416.013ZM234.508,641.892c-1.13,2.93-2.3,5.849-3.484,8.766a2.863,2.863,0,0,1-5.477-1.553c10.59-58.819,17.852-118.409,30.478-176.78a2.562,2.562,0,0,0-.382-1.72c-1.678-5.7-4.124-11.236-4.737-17.182,3.7-2.347,6.773-6.368,10.05-9.047a52.6,52.6,0,0,1,12.813-7.669,13.378,13.378,0,0,0,11.272.486c2.6,8.141,5.366,16.232,8.089,24.332-11.728,13.922-15.728,31.727-18.8,49.388C261.82,554.8,251.25,599.33,234.508,641.892Z"/><text x="0" y="915" fill="#000000" font-size="5px" font-weight="bold" font-family="'Helvetica Neue', Helvetica, Arial-Unicode, Arial, Sans-serif">Created by Maxicons</text><text x="0" y="920" fill="#000000" font-size="5px" font-weight="bold" font-family="'Helvetica Neue', Helvetica, Arial-Unicode, Arial, Sans-serif">from the Noun Project</text></svg>