<svg xmlns="http://www.w3.org/2000/svg" viewBox="0 0 500 625" x="0px" y="0px"><path d="M355.74,268.788c-37.521,18.012-79.375-20.579-63.233-59.754a46.759,46.759,0,0,1,40.046-29.252,2.434,2.434,0,0,0,.741-4.7c-68.947-30.008-128.034,76.689-45.253,115.791a62.336,62.336,0,0,0,70.615-18.321A2.435,2.435,0,0,0,355.74,268.788Z"/><path d="M374.961,216.511c-5.516-2.243-11.9-6.664-9.377-16.161,1.478-5.433,4.81-15.725,4.844-15.828a2.422,2.422,0,0,0-4.491-1.787c-.046.1-4.695,9.868-7.352,14.831-4.61,8.627-12.522,7.45-17.915,5.305a2.422,2.422,0,0,0-1.973,4.423,48.446,48.446,0,0,1,4.854,2.57c3.852,2.358,5.321,8.472,3.655,15.213-1.2,4.849-4.1,15.052-4.131,15.154a2.426,2.426,0,0,0,4.477,1.781c.049-.095,4.947-9.5,7.406-13.851,3.42-6.044,8.687-9.478,13.106-8.546,4.071.6,6.86,3.214,8.367-.022A2.431,2.431,0,0,0,374.961,216.511Z"/><path d="M250.153,313.218c-5.516-2.243-11.9-6.664-9.377-16.161,1.478-5.433,4.81-15.726,4.844-15.829a2.421,2.421,0,0,0-4.49-1.786c-.047.1-4.695,9.867-7.353,14.831-4.61,8.626-12.522,7.45-17.915,5.3A2.422,2.422,0,0,0,213.889,304a48.542,48.542,0,0,1,4.854,2.571c3.852,2.358,5.321,8.471,3.655,15.213-1.2,4.849-4.1,15.051-4.131,15.154a2.426,2.426,0,0,0,4.477,1.781c.049-.095,4.947-9.5,7.406-13.851,3.42-6.044,8.687-9.479,13.106-8.547,4.071.606,6.86,3.214,8.367-.021A2.43,2.43,0,0,0,250.153,313.218Z"/><path d="M176.037,169.119c1.124-8.467-2.012-38.8-3.283-47.127-.472-3.094-4.742-2.187-5.108.5-1.181,8.641.416,39.347,2.852,47.169A2.822,2.822,0,0,0,176.037,169.119Z"/><path d="M106.692,244.693c-5.83.924-9.079,1.937-14.86,3.129-4.6.949-10.9,1.115-14.263,4.615a2.4,2.4,0,0,0,.9,4c4.536,1.638,10.36-.89,14.973-1.794,5.794-1.135,9.039-2.167,14.869-3.091C112.783,250.843,111.157,243.986,106.692,244.693Z"/><path d="M121.772,188.911c-11.6-11.024-16.953-17.531-27.87-29.18-1.907-2.035-5.836.5-4.122,2.942,9.143,13.034,15.974,19.5,27.7,30.222C120.234,195.414,124.525,191.527,121.772,188.911Z"/><path d="M142.666,175.52c1.564,1.456,5.079.844,4.864-1.805-.25-3.076-1.934-5.66-3.284-8.4q-2.179-4.425-4.414-8.822c-1.8-3.521-7-.67-5.378,2.879q1.932,4.227,3.929,8.425C139.6,170.369,140.555,173.555,142.666,175.52Z"/><path d="M109.793,222.029a2.773,2.773,0,0,0,1.672-5.285,201.332,201.332,0,0,1-18.693-7.639c-3.124-1.552-6.1,2.989-2.948,4.637A97.826,97.826,0,0,0,109.793,222.029Z"/><path d="M109.668,291.105c3.7-3.78,7.465-7.521,11.032-11.427,2.311-2.531-1.172-6.434-3.67-3.956-3.758,3.726-7.341,7.644-10.966,11.5C103.743,289.687,107.267,293.559,109.668,291.105Z"/><path d="M130.425,146.068c5.609-1,4.267-9.365-1.372-8.558C123.443,138.507,124.786,146.874,130.425,146.068Z"/><path d="M74.962,199.335c-5.609,1-4.267,9.365,1.372,8.558C81.944,206.9,80.6,198.528,74.962,199.335Z"/><path d="M97.033,297.856c-5.609,1-4.267,9.365,1.372,8.558C104.015,305.417,102.672,297.05,97.033,297.856Z"/><path d="M71.369,460.382c39.975-6.8,87.559-15.977,127.783-21.407a3.714,3.714,0,0,0,.951-7.1l-30.869-13.114a19.1,19.1,0,0,0-10.746-1.241c-11.22,1.952-29.933,6.659-41.149,8.6-3.4-16.494-17.095-27.483-34-24.8C67.3,312.724,54.807,223.486,45.1,133.981c16.672-4.2,25.913-17.936,23.911-34.884q65.846-11.178,132.352-17.7a24.572,24.572,0,0,0,3.218,11.575,3.7,3.7,0,0,0,6.6-.258l16.16-35.63a3.367,3.367,0,0,0-3.368-4.744q-75.487,6.9-150.4,18.819C54.026,74.289,34.294,77.207,14.959,81.5a3.16,3.16,0,0,0-2.707,3.241C24.208,209.925,43.209,334.649,67.867,457.994A2.9,2.9,0,0,0,71.369,460.382Z"/><path d="M133.665,265.078a4.337,4.337,0,0,0,7.7-.751l28.148-72.361a4.339,4.339,0,0,0-5.21-5.741C130.924,194.527,114.372,235.926,133.665,265.078Z"/><path d="M260.075,19.566a3.258,3.258,0,0,0-4.094,1.479q-6.839,14.793-13.523,29.66c-32.124,70.479-66.816,156.876-94.371,229.691q-18.931,50.7-36.513,101.855a2.987,2.987,0,0,0,1.878,3.945c38.868,14.621,87.032,33.448,125.761,49.606,33.065,13.9,65.814,28.553,98.038,44.349,2.2.885,4.946.773,6-1.894q64.371-182.97,144.2-360.019a3.359,3.359,0,0,0-1.756-4.529C412.14,78.637,337.057,46.336,260.075,19.566Zm182.719,135.8C413.309,221.438,346.213,391.4,339.705,409.248c-16.572-6.641-36.3,2.673-43.674,18.858-40.477-18.138-82.315-33.037-123.851-48.532,5.544-16.451-.941-33.35-17.39-39.743,31.756-87.207,66.993-173.149,104.855-257.877,17.029,4.918,32.39-2.506,39.412-18.635q64.433,24.258,127.028,53.008C417.565,132.033,427.316,149.69,442.794,155.37Z"/><text x="0" y="515" fill="#000000" font-size="5px" font-weight="bold" font-family="'Helvetica Neue', Helvetica, Arial-Unicode, Arial, Sans-serif">Created by Maxicons</text><text x="0" y="520" fill="#000000" font-size="5px" font-weight="bold" font-family="'Helvetica Neue', Helvetica, Arial-Unicode, Arial, Sans-serif">from the Noun Project</text></svg>