<svg xmlns="http://www.w3.org/2000/svg" viewBox="0 0 500 625" x="0px" y="0px"><path d="M41.975,142.21c-4.7,3.261.027,10.341,4.839,7.241C51.519,146.19,46.788,139.111,41.975,142.21Z"/><path d="M41.975,362.614c-4.7,3.261.027,10.341,4.839,7.241C51.519,366.594,46.788,359.515,41.975,362.614Z"/><path d="M452.39,142.21c-4.7,3.261.026,10.341,4.839,7.241C461.934,146.19,457.2,139.111,452.39,142.21Z"/><path d="M446.353,366.684c-4.7,3.261.026,10.341,4.839,7.242C455.9,370.664,451.166,363.585,446.353,366.684Z"/><path d="M153.7,229.447c-6.868-1.654-11.074.872-15.71,7.194-11.058,15.046.888,37.91,18.792,33.712,2.346-.55,2.23-3.151-.575-3.285-4.552-.216-9.483-1.323-11.95-5.045a1.6,1.6,0,0,1,1.867-2.381c10.831,2.673,18.648-2.4,18.983-14.894C164.236,237.416,157.365,230.33,153.7,229.447Z"/><path d="M127.58,252.7c-4.521-2.452-8.488,8.857-9.269,11.67-.79,2.848.6,5.924,3.14,3.229,2.8-3.5,2.858,2.139,3.133,3.511,3.889,9.883,5.129-7.212,5.2-11.252C129.824,257.62,129.917,253.968,127.58,252.7Z"/><path d="M117.735,218.525c-3.771-1.167-15.374,1.854-20.077,7.983-6.433,11.477-1.988,20.333,9.324,23.6a1.586,1.586,0,0,1,.483,2.943c-4.269,2.254-9.435.588-13.744-1.706-2.594-1.381-4.09.9-2.274,2.646C113.3,275.274,139.824,226.432,117.735,218.525Z"/><path d="M352.808,329.624c-4.082,3.4-8.425,8.22-13.19,11.4,26.139,20.054,66.774,8.591,85.171-16.543-14.584-5.752-29.178-11.9-43.667-17.971Q366.839,317.91,352.808,329.624Z"/><path d="M359.711,295.756c-1.017-1.564-.109-4.39,1.9-4.677,3.457-.494,6.48,1.4,9.613,2.749,2.726,1.17,5.46,2.323,8.192,3.479q13.836-10.972,27.911-21.636c-8.274-16.691-17.227-33.067-26.481-49.225q-8.113,17.814-15.713,35.854,12.214-1.633,24.4-3.444c5.123-.763,7.313,7.067,2.16,7.834q-15.077,2.246-30.184,4.272-12.332,29.825-23.221,60.223c11.3-9.6,22.644-19.143,34.244-28.381C368.314,300.568,362.649,299.747,359.711,295.756Z"/><path d="M438.74,262.57a109.436,109.436,0,0,1-13.067,10.617c-3.42,2.236-6.438-2.565-4.1-5.31a83.174,83.174,0,0,1,8.624-8.468q-10.05,2.02-20.031,4.37c7.939,15.5,15.409,31.239,22.266,47.244C439.281,296,442.313,278.318,438.74,262.57Z"/><path d="M318.945,278.762c-4.459,18.14-1.6,38.257,10.845,53.145,4.988-13.627,9.892-27.088,15.2-40.578C336.236,287.158,328.161,282.023,318.945,278.762Z"/><path d="M388.113,300.968c12.75,5.252,25.258,10.659,38.195,15.494-4.923-11.159-9.982-22.251-15.282-33.231Q399.484,291.988,388.113,300.968Z"/><path d="M469.7,375.861c1.112-33.826,5.493-169.355,6.664-241.319-.025-4.151.23-8.889-1.8-12.68-6.833-10.2-25.524.491-36.491,4.961-1.749-.837-3.97-.685-5.875-1.039,6.556-10.1,12.971-24.057,11.429-36.341a1.9,1.9,0,0,0-1.935-1.669,3,3,0,0,0-3.617-.38c-4.068,2.519-8.058,5.027-12.155,7.34A36.3,36.3,0,0,0,429.982,82.1c.457-3.809,2.117-8.279.819-11.97-.7-1.99-3.4-3.425-5.329-1.465-8.838,8.965-20.024,14.82-31.649,19.474,12.036-18.566,23.64-73.617,10.851-66.681C353.2,61.034,282.358,65.005,253.833,142.84c-1.139,2.828,3.7,4.892,4.96,2.089C291.47,70.572,346.038,70.7,403.576,31.248c-1.036,22.837-7.09,48.176-26.193,62.843-46,15.484-96.077,32.366-125.89,73.244-5.6-60.448-65.67-77.624-107.315-109.411-10.8-9.636-16.648-21.474-22.818-34.28A2.32,2.32,0,0,0,117.632,23c-4.627,3.507-6.713,15.287-8.269,20.907-3.971,16.327-4.884,34.741,3.687,49.8-11.582-4.32-24.689-8.876-32.154-19.3a2.767,2.767,0,0,0-4.68-.823A2.735,2.735,0,0,0,75.4,74.87c-2.179,7.265-2.493,16.416-1.183,24.475C69.451,98.136,64.923,96.421,61.243,93a2.571,2.571,0,0,0-1.2-.639c-1.043-1.7-4.3-.915-4.292,1.365.06,11.511,1.63,20.757,4.657,28.989q-3.309.392-6.591,1.009c-2.333-1.062-4.651-2.154-6.937-3.315-13.586-6.9-22.937,1.632-22.97,6.417-.828,58.073.545,232.174.2,247.936.485,5.044,2.763,8.254,6.221,10.258,0,0,111.966,59.855,170.849,83.231,23.4,10.12,50.792,14.558,75.306,7.309,62.167-18.385,159.708-72.882,186.149-87.984A14.016,14.016,0,0,0,469.7,375.861ZM435.525,97.192c-1.681,8.04-6.346,25.578-15.4,27.505-54.2-3.341-110.008,15.481-149.771,52.792q-2.269-.7-4.6-1.233c20.032-23.942,47.534-40.957,77.126-50.665C373.4,114.7,407.8,115.5,435.525,97.192ZM267.546,158.127c18.9-19.309,43.037-32.516,67.837-42.691,29.713-12.85,63.527-18.061,89.64-38.07-.645,3.872-2.159,7.533-2.969,11.349a46.093,46.093,0,0,1-7.817,11.724c-8.806,3.592-18.094,5.635-27.4,7.465-47.325,8.739-98.34,26.457-127.525,67.227-1.929-.238-3.87-.4-5.812-.462C258.086,169.063,262.427,163.312,267.546,158.127ZM119.289,34.348C142.6,91.88,232.42,93.994,242.607,160.915c-27.684-37.871-76.974-51.724-120.382-64.33C108.325,78.947,111.722,54,119.289,34.348ZM80.226,84.018c16.254,16.207,45.231,20.375,66.366,27.323,30.782,9.807,63.681,22.722,85.018,48.023-45.462-30.652-97.767-48.926-151.485-58.71A80.712,80.712,0,0,1,80.226,84.018Zm32.744,31.2a365.535,365.535,0,0,1,128.851,60.111A58.644,58.644,0,0,0,232,177.65C187.6,138.574,125.107,121.9,66.79,122.156a92.641,92.641,0,0,1-4.681-16.915C78.891,109.072,96.169,111.159,112.97,115.214Zm-53.121,267.9a4.2,4.2,0,0,1-6.017,3.06L38,378.226a9.019,9.019,0,0,1-4.7-8.008l.178-18.233a4.189,4.189,0,0,1,5.708-3.864C47.99,351.529,63.611,360.814,59.849,383.114Zm4.258-237.9c-7.93,14.5-20.124,16.969-26.536,17.178a4.172,4.172,0,0,1-4.279-4.187V134.8a5.193,5.193,0,0,1,2.038-4.125c1.522-1.166,4.609-1.864,6.354-1.07l20.563,9.779A4.206,4.206,0,0,1,64.107,145.213ZM139.26,385.8c-10.285-3.092-20.277-8.026-30.024-12.473-9.079-4.142-19.559-8.068-27.539-14.183-2.731-2.092-.45-7.182,2.917-5.574,9.258,4.422,18.263,9.322,27.618,13.578,9.68,4.405,19.508,8.32,29.378,12.256C145.709,381.035,143.442,387.054,139.26,385.8Zm13.991-17.667c-20.831-6.765-40.811-16.781-60.6-26.161-5.92-2.985-12.75-5.655-17.661-10.166-2.287-2.1.768-4.865,3.035-4.34C85.066,329.1,92,333.789,98.5,336.93c12.732,6.18,25.631,12.015,38.718,17.4,6.318,2.607,13.1,4.66,19.1,7.936C159.962,364.258,156.544,368.9,153.251,368.13Zm-53.62-54.611c12.8,5.781,25.348,12.233,38.487,17.306,4.058,1.7,1.467,7.827-2.629,6.287-13.137-4.941-27.176-10.551-39.018-18.152C93.357,316.961,96.412,312.214,99.631,313.519Zm53.814-31.551c-8.235,4.372-5.155,14.432-8.3,21.882-1.645,4.93-10.729,6.984-10.209.3.581-2.837,1.149-6.866,1.418-9.695.279-2.944-4.173-3.172-4.554-.286a61.847,61.847,0,0,1-1.9,9.038c-.936,3.238-4.416,2.663-6.972,1.9a3.6,3.6,0,0,1-2.792-3.98c.595-4.494,1.077-9.012,1.264-13.534.128-3.105-4.332-3.31-4.764-.3-.54,3.76-1,7.527-1.535,11.286-1.091,4.68-5.36,2.922-8.416,1.417a3.61,3.61,0,0,1-2.134-3.484c.194-3.694.578-10.65.729-14.253.1-2.382-3.717-3.377-4.3-.859-.522,2.264-1.017,4.657-1.443,7.12a3.609,3.609,0,0,1-7.026.363c-1.134-3.974-.314-8.752-.221-12.449-4.568-14.706-19.517-26.158-15.8-43.366,10.879-50.325,79.63-45.11,100.673-3.866C189.363,253.1,175.672,276.859,153.445,281.968ZM123.6,151.765a186.485,186.485,0,0,1,73.084,25.269C172.147,169.135,147.743,160.8,123.6,151.765Zm94.462,32.041c-33.129-25.714-74.524-38-116.065-40.352-12.292-4.861-24.477-9.982-36.772-14.843a3.5,3.5,0,0,0,.928-.184c56.366-.366,115.763,14.9,159.414,51.834a46.54,46.54,0,0,0-6.531,3.85ZM279.305,417.9a6.555,6.555,0,0,1-4.166,5.921c-15.676,6.741-31.3,6.755-46.869-.1a6.4,6.4,0,0,1-3.926-5.751l-.235-22.322a3.17,3.17,0,0,1,4.5-2.67c8.184,3.371,26.379,8.673,46.125.078,2.118-.922,4.568.446,4.568,2.59Zm0-153.615a6.555,6.555,0,0,1-4.166,5.921c-15.676,6.741-31.3,6.755-46.869-.1a6.406,6.406,0,0,1-3.926-5.751l-.235-22.322a3.171,3.171,0,0,1,4.5-2.671c8.184,3.372,26.379,8.673,46.125.078,2.118-.922,4.568.446,4.568,2.591Zm2.151-82.059a54.745,54.745,0,0,0-5.077-2.507c40.447-35.289,95.814-53.152,149.233-47.735-8.542,3.483-17.106,6.913-25.717,10.218-38.3-1.8-77.393,11.125-106.336,36.311Q287.511,180.381,281.456,182.226Zm99.756-33.01c-23.684,8.683-47.614,16.695-71.657,24.3A155.692,155.692,0,0,1,381.212,149.216Zm-8.148,211.29c-92.029,4.574-79.592-119.53-8.171-142.756,80.434-22.4,109.339,72,56.964,122.605C408.65,351.411,390.06,358.531,373.064,360.506Zm82.789,19.083-15.833,7.949a4.2,4.2,0,0,1-6.017-3.06c-3.763-22.3,11.859-31.586,20.668-34.994a4.189,4.189,0,0,1,5.708,3.864l.178,18.234A9.015,9.015,0,0,1,455.853,379.589ZM435.64,145.213a4.2,4.2,0,0,1,1.86-5.827l20.562-9.779c1.746-.794,4.832-.1,6.355,1.07a5.2,5.2,0,0,1,2.038,4.125v23.4a4.172,4.172,0,0,1-4.279,4.187C455.763,162.182,443.57,159.717,435.64,145.213Z"/><path d="M350.128,278.36c.836-2.076,1.7-4.141,2.546-6.212-7.412,1.043-14.464,1.571-21.91,2.926,5.741,3.068,11.729,4.558,17.474,8.057C348.872,281.542,349.488,279.947,350.128,278.36Z"/><path d="M434.318,250.285c-8.9-17.631-28.237-27.957-47.044-28.015,6.7,11.167,13.037,22.591,19.079,34.136Q420.254,252.957,434.318,250.285Z"/><path d="M373.572,223.668c-22.147,5.039-40.513,22.152-50.344,42.448a214.161,214.161,0,0,0,33.007-2.652Q364.584,243.429,373.572,223.668Z"/><text x="0" y="515" fill="#000000" font-size="5px" font-weight="bold" font-family="'Helvetica Neue', Helvetica, Arial-Unicode, Arial, Sans-serif">Created by Maxicons</text><text x="0" y="520" fill="#000000" font-size="5px" font-weight="bold" font-family="'Helvetica Neue', Helvetica, Arial-Unicode, Arial, Sans-serif">from the Noun Project</text></svg>