<svg xmlns="http://www.w3.org/2000/svg" viewBox="0 0 500 625" x="0px" y="0px"><path d="M269.967,107.118c-4.894,13.288.774,32.822,17.2,34.013,2.852.207,3.682-3.865,1.41-5.205-4.366-2.577-8.6-5.11-11.079-9.74-7.427-15.39,7.306-35.863,24.43-33.376,21.869,2.475,25.731,35.623,3.254,40.444-4.284.919-3.373,7.907,1.039,7.681,14.817-.758,23.65-16.722,21.837-30.234C322.981,77.973,280.194,76.685,269.967,107.118Z"/><path d="M210.7,137.068c10.581-5.4,10.816-23.324,1.154-29.805-11.4-7.62-23.462,4.25-25.225,15.333C185.054,135.013,200.4,142.321,210.7,137.068Zm-10.585-6.3c-4.354-1.049-7.361-3.845-5.993-8.667,2.219-9.043,14.659-12.269,17.031-2.09C212.139,127.874,207.752,132.874,200.114,130.765Z"/><path d="M141.666,134.427c3.755-8.377-4.48-17.533-13.367-13.484-6.271,1.579-10.292,9.689-8.131,15.73C124.423,147.35,139.44,145.369,141.666,134.427Z"/><path d="M238.191,80.036c5.123,7.931,16.7-.783,10.176-7.845C242.707,66.623,234.437,73.176,238.191,80.036Z"/><path d="M256.4,160.3c2.52-4.422-4.194-8.517-6.858-4.07C247.02,160.649,253.734,164.744,256.4,160.3Z"/><path d="M72.024,139.849c-.532-4.641-2.988-9.515-4.882-13.765a3.2,3.2,0,0,0-5.032-.649c-2.449,2.676.905,6.707,1.482,9.678a32.788,32.788,0,0,0,2.475,6.35C67.59,143.951,72.405,143.177,72.024,139.849Z"/><path d="M53.406,156.394a2.257,2.257,0,0,0,2.161,2.837c2.076-.066,3.817-1.482,5.615-2.407,1.819-.936,4.067-1.514,5.556-2.924,1.805-1.709.362-4.651-1.959-4.729C61.431,149.241,54.542,153.145,53.406,156.394Z"/><path d="M83.42,148.088c3.266-1.138,6.728-1.648,10-2.67,3.29-1.3,3.056-6.37-.871-6.437-3.868-.066-8.142,1.644-11.648,3.136C77.47,143.579,79.93,149.11,83.42,148.088Z"/><path d="M73.032,156.06c.457,5.321,2.962,10.979,5.784,15.472,2.176,3.465,7.209.443,5.44-3.18-2.18-4.467-3.907-9.277-6.233-13.644C76.818,152.446,72.8,153.386,73.032,156.06Z"/><path d="M350.66,49.81c4.463-2,8.152-5.491,12.043-8.411,2.79-2.3-.871-7.048-3.876-5.023-3.668,2.768-7.939,4.945-11.277,8.091C345.619,46.653,347.433,50.994,350.66,49.81Z"/><path d="M335.679,48.425a2.8,2.8,0,0,0,4.07-3.129c-.509-2.473-3.253-4.944-4.944-6.735s-3.976-4.546-6.608-4.57a2.266,2.266,0,0,0-2.161,2.837c.556,2.219,3.162,4.185,4.606,5.9C332.159,44.523,333.622,47.249,335.679,48.425Z"/><path d="M345.686,62.867c2.105,3.134,3.628,6.61,5.78,9.69,2.178,2.751,6.136-.3,5.477-3.188-1.17-3.858-3.726-7.267-6.16-10.434C348.387,56.07,343.847,59.753,345.686,62.867Z"/><path d="M321.941,64.738a3.152,3.152,0,0,0,4.455,4.455c3.6-3.5,7.713-6.4,11.5-9.634,1.836-1.8-.021-5.369-2.606-4.477C330.338,56.793,325.433,60.9,321.941,64.738Z"/><path d="M368.178,217.954c16.6-25.047,22.141-55.059,27.689-84.159,2.7-14.18,5.8-28.964,13.936-41.159,4.143-6.21,10.213-9.989,15.032-15.5,5.1-5.839,23.413-40.967,24.184-45.23.7-3.868-1.166-6.945-2.92-10.265-2.639-4.858-5.083-9.852-7.9-14.6a4.2,4.2,0,0,0-6.376-1.7C381.8,48.253,388.254,134.08,355.919,190.775c-2.618-10.837-12.215-18.809-22.727-21.625-6.787-1.873-15.847-2.9-21,2.94a2.784,2.784,0,0,0,3.358,4.352c16.244-7.116,38.447,10.025,32.564,27.856q-4.355,6.926-9.25,13.587-14.219-.022-28.437.021c11.282-24.258-10.058-49.907-35.565-41.733a16.143,16.143,0,0,0-11.542-12.082c-2.859-.742-4.606,3.116-2.079,4.648a14.531,14.531,0,0,1,7,10.383c-7.345,4.4-12.514,11.889-12.18,21.664a2.379,2.379,0,0,0,4.651.629c4.733-13.78,18.09-24.164,32.714-17.071,12.559,5.566,16.368,24.047,6.34,33.622-54.372.839-108.755-.569-163.128-.077-2.993-10.882-2.379-22.943,3.57-32.833,10.965-19.8,44.927-32.369,63.2-15.929,9.532,9.435,10.348,22.81,8.929,35.389-.571,5.064,6.909,6.132,7.878,1.128a52.127,52.127,0,0,0-2.132-28.454c2.772-6.376,7.708-12.308,14.687-14.318,2.331-.73,4.641-.749,6.868-1.79,2.7-1.26,1.591-5.016-.764-5.842-9.424-2.4-20.51,6.545-24.5,14.659-19.441-29.169-67.342-15.168-81.477,12.577-21.716-8.708-46.257,12.909-41.508,35.678q-4.026.032-8.053.061c-6.991.274-16.477-1.721-22.544,2.311-9.777,8.538,2.677,24.111,9.57,30.336a71.287,71.287,0,0,0,21.493,13.419,37.963,37.963,0,0,0,14.371,2.841c33.5.041,187.158.087,223.624.083,5.5,0,5.491,8.535,0,8.534-36.281,0-178.534.258-222.463-.007a25.811,25.811,0,0,0-19.29,8.49c-2.315,2.555-4.737,5.147-6.595,6.94C17.37,352.6,62.288,439.394,138.283,462.122c-5.391,8.558-9.6,19.615-9.061,29.562a2.4,2.4,0,0,0,2.037,2.267c3.348,2.555,10.816,1.244,14.521,1.3a3.446,3.446,0,0,0,3.27-2.49c2.614-10.714,12.013-19.767,23.223-20.566a610.9,610.9,0,0,0,150.915,0c11.2.807,20.618,9.846,23.222,20.567a3.449,3.449,0,0,0,3.271,2.49c3.705-.054,11.159,1.248,14.517-1.3a2.385,2.385,0,0,0,2.041-2.268c.545-10-3.711-21.113-9.14-29.688,73.161-19.9,120.248-108.567,59.468-168.279-8.025-7.927-17.514-15.568-20.771-26.661A76.149,76.149,0,0,0,420.8,254.5c7.8-6.539,18.458-15.485,16.974-26.748.438-12.591-16.341-9.323-24.674-9.574q-4.836-.066-9.67-.1c.732-19.217-22.208-24.48-17.787-15.857,4.578,4.313,11.545,8.485,10.247,15.8C386.655,217.958,377.415,217.992,368.178,217.954Zm-239.147-.04q-15.105.068-30.209.183c.194-3.107-.48-6.5.113-9.528,2.2-14.175,17.448-23.139,31.01-19.262C126.756,198.4,125.6,209.259,129.031,217.914Z"/><text x="0" y="515" fill="#000000" font-size="5px" font-weight="bold" font-family="'Helvetica Neue', Helvetica, Arial-Unicode, Arial, Sans-serif">Created by Maxicons</text><text x="0" y="520" fill="#000000" font-size="5px" font-weight="bold" font-family="'Helvetica Neue', Helvetica, Arial-Unicode, Arial, Sans-serif">from the Noun Project</text></svg>